<svg id="visual" viewBox="0 0 450 450" width="450" height="450" xmlns="http://www.w3.org/2000/svg" xmlns:xlink="http://www.w3.org/1999/xlink" version="1.1"><g transform="translate(225.31740681893686 227.5968667930944)"><path d="M116.4 -151.9C152.1 -134.3 183 -101.9 184.1 -67.2C185.1 -32.5 156.3 4.4 131.6 31.2C107 57.9 86.6 74.5 65.3 101.2C44.1 128 22 165 -3.7 170.1C-29.4 175.1 -58.8 148.2 -88.9 124.4C-119 100.5 -149.9 79.6 -167.3 48.9C-184.8 18.2 -188.9 -22.2 -180.7 -62.1C-172.4 -102 -151.7 -141.2 -119.6 -159.9C-87.4 -178.6 -43.7 -176.8 -1.7 -174.5C40.4 -172.2 80.7 -169.4 116.4 -151.9" fill="#1137bb"></path></g></svg>