<svg id="visual" viewBox="0 0 900 600" width="900" height="600" xmlns="http://www.w3.org/2000/svg" xmlns:xlink="http://www.w3.org/1999/xlink" version="1.1"><rect x="0" y="0" width="900" height="600" fill="#FFFFFF"></rect><g transform="translate(423.865087677033 258.0907336310986)"><path d="M124.9 -151.2C170.2 -138.9 221.1 -113.7 230.1 -76.9C239 -40.2 206.1 8 175.4 43C144.8 77.9 116.5 99.7 87.6 133.3C58.8 166.9 29.4 212.5 -14.7 232.7C-58.8 252.9 -117.6 247.8 -147.8 214.6C-178.1 181.5 -179.9 120.2 -179.2 70.5C-178.5 20.7 -175.3 -17.6 -160 -48.1C-144.7 -78.5 -117.3 -101.2 -88.6 -118.8C-60 -136.5 -30 -149.3 4.9 -156C39.8 -162.7 79.5 -163.5 124.9 -151.2" fill="#1137bb"></path></g></svg>